<svg width="50" height="50" viewBox="0 0 50 50" fill="none" xmlns="http://www.w3.org/2000/svg">
<circle cx="25" cy="25" r="25" fill="#146E24" fill-opacity="0.25"/>
<circle cx="25" cy="25" r="25" fill="black" fill-opacity="0.2"/>
<path d="M25 18.25C23.3688 18.2504 21.7744 18.7342 20.4181 19.6405C19.0619 20.5468 18.0047 21.8347 17.3803 23.3416C16.7558 24.8485 16.5921 26.5067 16.9097 28.1067C17.2274 29.7066 18.0122 31.1765 19.165 32.3305C19.3759 32.5418 19.4941 32.8281 19.4939 33.1266C19.4936 33.425 19.3747 33.7112 19.1635 33.922C18.9523 34.1329 18.6659 34.2511 18.3674 34.2509C18.069 34.2506 17.7829 34.1317 17.572 33.9205C16.1045 32.4517 15.1054 30.5807 14.7011 28.5442C14.2967 26.5077 14.5052 24.3969 15.3002 22.4789C16.0952 20.5608 17.441 18.9215 19.1675 17.7682C20.894 16.6148 22.9237 15.9993 25 15.9993C27.0763 15.9993 29.106 16.6148 30.8325 17.7682C32.559 18.9215 33.9048 20.5608 34.6998 22.4789C35.4948 24.3969 35.7033 26.5077 35.2989 28.5442C34.8946 30.5807 33.8955 32.4517 32.428 33.9205C32.3243 34.028 32.2002 34.1138 32.063 34.1728C31.9257 34.2318 31.7781 34.2629 31.6287 34.2643C31.4794 34.2657 31.3312 34.2373 31.1929 34.1808C31.0546 34.1243 30.929 34.0408 30.8233 33.9352C30.7176 33.8296 30.634 33.7041 30.5774 33.5658C30.5208 33.4276 30.4923 33.2795 30.4935 33.1301C30.4947 32.9807 30.5257 32.8331 30.5846 32.6958C30.6435 32.5585 30.7291 32.4343 30.8365 32.3305C31.9894 31.1764 32.7742 29.7064 33.0919 28.1063C33.4095 26.5062 33.2456 24.8479 32.621 23.3409C31.9963 21.834 30.9389 20.546 29.5824 19.6399C28.226 18.7337 26.6313 18.2501 25 18.25V18.25ZM25 24.25C24.4033 24.25 23.831 24.4871 23.409 24.909C22.9871 25.331 22.75 25.9033 22.75 26.5C22.75 27.0967 22.9871 27.669 23.409 28.091C23.831 28.513 24.4033 28.75 25 28.75C25.5967 28.75 26.169 28.513 26.591 28.091C27.013 27.669 27.25 27.0967 27.25 26.5C27.25 25.9033 27.013 25.331 26.591 24.909C26.169 24.4871 25.5967 24.25 25 24.25ZM20.875 26.5C20.875 25.8218 21.0422 25.154 21.3618 24.5558C21.6815 23.9576 22.1437 23.4475 22.7076 23.0705C23.2714 22.6936 23.9195 22.4615 24.5944 22.3949C25.2694 22.3282 25.9504 22.429 26.5771 22.6883C27.2038 22.9476 27.7569 23.3574 28.1874 23.8815C28.6179 24.4056 28.9126 25.0277 29.0453 25.6928C29.178 26.358 29.1446 27.0455 28.9482 27.6947C28.7517 28.3439 28.3982 28.9346 27.919 29.4145C27.7082 29.6258 27.5899 29.9121 27.5901 30.2106C27.5904 30.509 27.7093 30.7952 27.9205 31.006C28.1317 31.2169 28.4181 31.3351 28.7166 31.3349C29.015 31.3346 29.3012 31.2158 29.512 31.0045C30.4026 30.1126 31.0088 28.9766 31.254 27.7403C31.4992 26.5039 31.3723 25.2226 30.8896 24.0583C30.4068 22.894 29.5897 21.8989 28.5415 21.1989C27.4933 20.4988 26.2612 20.1251 25.0008 20.1251C23.7403 20.1251 22.5082 20.4988 21.46 21.1989C20.4119 21.8989 19.5948 22.894 19.112 24.0583C18.6292 25.2226 18.5023 26.5039 18.7475 27.7403C18.9927 28.9766 19.5989 30.1126 20.4895 31.0045C20.5925 31.115 20.7167 31.2037 20.8547 31.2652C20.9927 31.3267 21.1417 31.3597 21.2927 31.3624C21.4438 31.3651 21.5938 31.3373 21.7339 31.2807C21.874 31.2241 22.0012 31.1399 22.1081 31.0331C22.2149 30.9262 22.2991 30.799 22.3557 30.6589C22.4123 30.5188 22.4401 30.3688 22.4374 30.2177C22.4347 30.0667 22.4017 29.9177 22.3402 29.7797C22.2787 29.6417 22.19 29.5175 22.0795 29.4145C21.6967 29.032 21.3932 28.5776 21.1865 28.0774C20.9798 27.5773 20.8739 27.0412 20.875 26.5V26.5Z" fill="#146E24"/>
<path d="M25 18.25C23.3688 18.2504 21.7744 18.7342 20.4181 19.6405C19.0619 20.5468 18.0047 21.8347 17.3803 23.3416C16.7558 24.8485 16.5921 26.5067 16.9097 28.1067C17.2274 29.7066 18.0122 31.1765 19.165 32.3305C19.3759 32.5418 19.4941 32.8281 19.4939 33.1266C19.4936 33.425 19.3747 33.7112 19.1635 33.922C18.9523 34.1329 18.6659 34.2511 18.3674 34.2509C18.069 34.2506 17.7829 34.1317 17.572 33.9205C16.1045 32.4517 15.1054 30.5807 14.7011 28.5442C14.2967 26.5077 14.5052 24.3969 15.3002 22.4789C16.0952 20.5608 17.441 18.9215 19.1675 17.7682C20.894 16.6148 22.9237 15.9993 25 15.9993C27.0763 15.9993 29.106 16.6148 30.8325 17.7682C32.559 18.9215 33.9048 20.5608 34.6998 22.4789C35.4948 24.3969 35.7033 26.5077 35.2989 28.5442C34.8946 30.5807 33.8955 32.4517 32.428 33.9205C32.3243 34.028 32.2002 34.1138 32.063 34.1728C31.9257 34.2318 31.7781 34.2629 31.6287 34.2643C31.4794 34.2657 31.3312 34.2373 31.1929 34.1808C31.0546 34.1243 30.929 34.0408 30.8233 33.9352C30.7176 33.8296 30.634 33.7041 30.5774 33.5658C30.5208 33.4276 30.4923 33.2795 30.4935 33.1301C30.4947 32.9807 30.5257 32.8331 30.5846 32.6958C30.6435 32.5585 30.7291 32.4343 30.8365 32.3305C31.9894 31.1764 32.7742 29.7064 33.0919 28.1063C33.4095 26.5062 33.2456 24.8479 32.621 23.3409C31.9963 21.834 30.9389 20.546 29.5824 19.6399C28.226 18.7337 26.6313 18.2501 25 18.25V18.25ZM25 24.25C24.4033 24.25 23.831 24.4871 23.409 24.909C22.9871 25.331 22.75 25.9033 22.75 26.5C22.75 27.0967 22.9871 27.669 23.409 28.091C23.831 28.513 24.4033 28.75 25 28.75C25.5967 28.75 26.169 28.513 26.591 28.091C27.013 27.669 27.25 27.0967 27.25 26.5C27.25 25.9033 27.013 25.331 26.591 24.909C26.169 24.4871 25.5967 24.25 25 24.25ZM20.875 26.5C20.875 25.8218 21.0422 25.154 21.3618 24.5558C21.6815 23.9576 22.1437 23.4475 22.7076 23.0705C23.2714 22.6936 23.9195 22.4615 24.5944 22.3949C25.2694 22.3282 25.9504 22.429 26.5771 22.6883C27.2038 22.9476 27.7569 23.3574 28.1874 23.8815C28.6179 24.4056 28.9126 25.0277 29.0453 25.6928C29.178 26.358 29.1446 27.0455 28.9482 27.6947C28.7517 28.3439 28.3982 28.9346 27.919 29.4145C27.7082 29.6258 27.5899 29.9121 27.5901 30.2106C27.5904 30.509 27.7093 30.7952 27.9205 31.006C28.1317 31.2169 28.4181 31.3351 28.7166 31.3349C29.015 31.3346 29.3012 31.2158 29.512 31.0045C30.4026 30.1126 31.0088 28.9766 31.254 27.7403C31.4992 26.5039 31.3723 25.2226 30.8896 24.0583C30.4068 22.894 29.5897 21.8989 28.5415 21.1989C27.4933 20.4988 26.2612 20.1251 25.0008 20.1251C23.7403 20.1251 22.5082 20.4988 21.46 21.1989C20.4119 21.8989 19.5948 22.894 19.112 24.0583C18.6292 25.2226 18.5023 26.5039 18.7475 27.7403C18.9927 28.9766 19.5989 30.1126 20.4895 31.0045C20.5925 31.115 20.7167 31.2037 20.8547 31.2652C20.9927 31.3267 21.1417 31.3597 21.2927 31.3624C21.4438 31.3651 21.5938 31.3373 21.7339 31.2807C21.874 31.2241 22.0012 31.1399 22.1081 31.0331C22.2149 30.9262 22.2991 30.799 22.3557 30.6589C22.4123 30.5188 22.4401 30.3688 22.4374 30.2177C22.4347 30.0667 22.4017 29.9177 22.3402 29.7797C22.2787 29.6417 22.19 29.5175 22.0795 29.4145C21.6967 29.032 21.3932 28.5776 21.1865 28.0774C20.9798 27.5773 20.8739 27.0412 20.875 26.5V26.5Z" fill="black" fill-opacity="0.2"/>
</svg>
