<svg width="50" height="50" viewBox="0 0 50 50" fill="none" xmlns="http://www.w3.org/2000/svg">
<circle cx="25" cy="25" r="25" fill="#146E24" fill-opacity="0.25"/>
<circle cx="25" cy="25" r="25" fill="black" fill-opacity="0.2"/>
<path d="M34.41 24.58L25.41 15.58C25.05 15.22 24.55 15 24 15H17C15.9 15 15 15.9 15 17V24C15 24.55 15.22 25.05 15.59 25.42L24.59 34.42C24.95 34.78 25.45 35 26 35C26.55 35 27.05 34.78 27.41 34.41L34.41 27.41C34.78 27.05 35 26.55 35 26C35 25.45 34.77 24.94 34.41 24.58ZM18.5 20C17.67 20 17 19.33 17 18.5C17 17.67 17.67 17 18.5 17C19.33 17 20 17.67 20 18.5C20 19.33 19.33 20 18.5 20ZM30.27 28.27L26.35 32.19C26.15 32.39 25.84 32.39 25.64 32.19L21.72 28.27C21.4206 27.9678 21.2022 27.5949 21.0851 27.1859C20.968 26.7769 20.9559 26.3449 21.05 25.93C21.24 25.05 21.94 24.32 22.81 24.09C23.75 23.84 24.66 24.13 25.25 24.74L26 25.46L26.73 24.73C26.9624 24.4976 27.2384 24.3132 27.5421 24.1874C27.8458 24.0616 28.1713 23.9968 28.5 23.9968C28.8287 23.9968 29.1542 24.0616 29.4579 24.1874C29.7616 24.3132 30.0376 24.4976 30.27 24.73C30.5024 24.9624 30.6868 25.2384 30.8126 25.5421C30.9384 25.8458 31.0032 26.1713 31.0032 26.5C31.0032 26.8287 30.9384 27.1542 30.8126 27.4579C30.6868 27.7616 30.5024 28.0376 30.27 28.27Z" fill="#146E24"/>
<path d="M34.41 24.58L25.41 15.58C25.05 15.22 24.55 15 24 15H17C15.9 15 15 15.9 15 17V24C15 24.55 15.22 25.05 15.59 25.42L24.59 34.42C24.95 34.78 25.45 35 26 35C26.55 35 27.05 34.78 27.41 34.41L34.41 27.41C34.78 27.05 35 26.55 35 26C35 25.45 34.77 24.94 34.41 24.58ZM18.5 20C17.67 20 17 19.33 17 18.5C17 17.67 17.67 17 18.5 17C19.33 17 20 17.67 20 18.5C20 19.33 19.33 20 18.5 20ZM30.27 28.27L26.35 32.19C26.15 32.39 25.84 32.39 25.64 32.19L21.72 28.27C21.4206 27.9678 21.2022 27.5949 21.0851 27.1859C20.968 26.7769 20.9559 26.3449 21.05 25.93C21.24 25.05 21.94 24.32 22.81 24.09C23.75 23.84 24.66 24.13 25.25 24.74L26 25.46L26.73 24.73C26.9624 24.4976 27.2384 24.3132 27.5421 24.1874C27.8458 24.0616 28.1713 23.9968 28.5 23.9968C28.8287 23.9968 29.1542 24.0616 29.4579 24.1874C29.7616 24.3132 30.0376 24.4976 30.27 24.73C30.5024 24.9624 30.6868 25.2384 30.8126 25.5421C30.9384 25.8458 31.0032 26.1713 31.0032 26.5C31.0032 26.8287 30.9384 27.1542 30.8126 27.4579C30.6868 27.7616 30.5024 28.0376 30.27 28.27Z" fill="black" fill-opacity="0.2"/>
</svg>
