<svg width="21" height="21" viewBox="0 0 21 21" fill="none" xmlns="http://www.w3.org/2000/svg">
<path d="M14.57 21C14.8356 21.0015 15.0989 20.9501 15.3444 20.8488C15.5899 20.7475 15.8128 20.5984 16 20.41L18.71 17.7C18.8963 17.5126 19.0008 17.2592 19.0008 16.995C19.0008 16.7308 18.8963 16.4774 18.71 16.29L14.71 12.29C14.5227 12.1037 14.2692 11.9992 14.005 11.9992C13.7408 11.9992 13.4874 12.1037 13.3 12.29L11.7 13.88C10.5923 13.5846 9.56634 13.0409 8.70003 12.29C7.95115 11.4223 7.40766 10.3968 7.11003 9.28999L8.70003 7.68999C8.88628 7.50263 8.99083 7.24918 8.99083 6.98499C8.99083 6.7208 8.88628 6.46735 8.70003 6.27999L4.70003 2.27999C4.51267 2.09374 4.25922 1.9892 3.99503 1.9892C3.73085 1.9892 3.4774 2.09374 3.29003 2.27999L0.590033 4.99999C0.401665 5.18723 0.252479 5.41012 0.15118 5.65564C0.049881 5.90116 -0.00150075 6.1644 3.33667e-05 6.42999C0.0907563 10.2723 1.62611 13.9393 4.30003 16.7C7.06075 19.3739 10.7277 20.9093 14.57 21ZM4.00003 4.40999L6.59003 6.99999L5.30003 8.28999C5.17785 8.40444 5.08636 8.54773 5.03395 8.70672C4.98153 8.86571 4.96987 9.03532 5.00003 9.19999C5.3738 10.8704 6.16514 12.4186 7.30003 13.7C8.58039 14.8363 10.1291 15.6279 11.8 16C11.9622 16.0339 12.1303 16.027 12.2891 15.9798C12.4479 15.9327 12.5926 15.8469 12.71 15.73L14 14.41L16.59 17L14.59 19C11.2738 18.9146 8.10954 17.5911 5.72003 15.29C3.41295 12.8995 2.08564 9.7311 2.00003 6.40999L4.00003 4.40999ZM18 9.99999H20C20.026 8.81099 19.8109 7.62905 19.3678 6.5254C18.9247 5.42174 18.2627 4.41923 17.4217 3.57828C16.5808 2.73733 15.5783 2.07535 14.4746 1.63224C13.371 1.18913 12.189 0.974058 11 0.999989V2.99999C11.9279 2.96789 12.8525 3.127 13.7163 3.46742C14.5801 3.80785 15.3647 4.32231 16.0212 4.97883C16.6777 5.63535 17.1922 6.41989 17.5326 7.28369C17.873 8.14749 18.0321 9.07208 18 9.99999Z" fill="white"/>
</svg>
