<svg width="24" height="24" viewBox="0 0 24 24" fill="none" xmlns="http://www.w3.org/2000/svg">
<path d="M23.9452 1.02871C23.9997 0.892413 24.0131 0.743103 23.9836 0.599288C23.9541 0.455474 23.883 0.32348 23.7792 0.21967C23.6754 0.11586 23.5434 0.0448002 23.3996 0.015299C23.2558 -0.0142021 23.1065 -0.000846891 22.9702 0.0537091L1.14967 8.78221H1.14817L0.470172 9.05221C0.341757 9.10343 0.23 9.18915 0.147245 9.2999C0.0644902 9.41066 0.0139585 9.54213 0.0012317 9.67979C-0.0114951 9.81746 0.0140783 9.95597 0.075127 10.08C0.136176 10.2041 0.230324 10.3088 0.347172 10.3827L0.962172 10.7727L0.963672 10.7757L8.45617 15.5427L13.2232 23.0352L13.2262 23.0382L13.6162 23.6532C13.6903 23.7696 13.7951 23.8633 13.9191 23.924C14.043 23.9846 14.1813 24.0099 14.3187 23.997C14.4561 23.9842 14.5873 23.9336 14.6978 23.851C14.8084 23.7684 14.8939 23.6569 14.9452 23.5287L23.9452 1.02871ZM21.1957 3.86371L9.95467 15.1047L9.63217 14.5977C9.57308 14.5047 9.49421 14.4258 9.40117 14.3667L8.89417 14.0442L20.1352 2.80321L21.9022 2.09671L21.1972 3.86371H21.1957Z" fill="white"/>
</svg>
