<?xml version="1.0" encoding="UTF-8"?>
<!DOCTYPE svg PUBLIC "-//W3C//DTD SVG 1.1//EN" "http://www.w3.org/Graphics/SVG/1.1/DTD/svg11.dtd">
<!-- Creator: CorelDRAW X7 -->
<svg xmlns="http://www.w3.org/2000/svg" xml:space="preserve" width="210mm" height="297mm" version="1.1" style="shape-rendering:geometricPrecision; text-rendering:geometricPrecision; image-rendering:optimizeQuality; fill-rule:evenodd; clip-rule:evenodd"
viewBox="0 0 21000 29700"
 xmlns:xlink="http://www.w3.org/1999/xlink">
 <defs>
  <style type="text/css">
   <![CDATA[
    .fil0 {fill:none}
   ]]>
  </style>
   <clipPath id="id0">
    <path d="M8728 13038c1269,0 2297,1010 2297,2256 0,1246 -1028,2257 -2297,2257 -1268,0 -2296,-1011 -2296,-2257 0,-1246 1028,-2256 2296,-2256z"/>
   </clipPath>
    <clipPath id="id1">
     <path d="M8883 13043c1196,78 2142,1056 2142,2251 0,1110 -816,2033 -1891,2222l-811 0c-968,-170 -1726,-936 -1867,-1897l0 -649c153,-1044 1032,-1856 2118,-1927l309 0z"/>
    </clipPath>
     <clipPath id="id2">
      <rect x="6456" y="13043" width="4575" height="4472"/>
     </clipPath>
    <clipPath id="id3">
     <path d="M8728 13038c1269,0 2297,1010 2297,2256 0,1246 -1028,2257 -2297,2257 -1268,0 -2296,-1011 -2296,-2257 0,-1246 1028,-2256 2296,-2256z"/>
    </clipPath>
 </defs>
 <g id="Layer_x0020_1">
  <metadata id="CorelCorpID_0Corel-Layer"/>
  <g>
  </g>
  <g style="clip-path:url(#id0)">
   <g>
   </g>
   <g style="clip-path:url(#id1)">
    <image id="photo_2022-08-09_15-01-57.jpg" style="clip-path:url(#id2)" x="6456" y="11553" width="4575" height="6931" xlink:href="Client4_Images\Client4_ImgID1.png"/>
   </g>
   <g style="clip-path:url(#id3)">
   </g>
  </g>
  <path class="fil0" d="M8728 13038c1269,0 2297,1010 2297,2256 0,1246 -1028,2257 -2297,2257 -1268,0 -2296,-1011 -2296,-2257 0,-1246 1028,-2256 2296,-2256z"/>
 </g>
</svg>
