<svg width="20" height="20" viewBox="0 0 20 20" fill="none" xmlns="http://www.w3.org/2000/svg">
<path d="M10 0.625C5.69187 0.625 2.1875 4.13 2.1875 8.4375C2.1875 12.745 5.69219 16.25 10 16.25C14.3081 16.25 17.8125 12.745 17.8125 8.4375C17.8125 4.13 14.3078 0.625 10 0.625ZM10 14.6878C6.55344 14.6878 3.74969 11.8841 3.74969 8.4375C3.74969 4.99156 6.55312 2.18781 10 2.18781C13.4462 2.18781 16.2497 4.99156 16.2497 8.4375C16.2494 11.8841 13.4459 14.6878 10 14.6878Z" fill="white"/>
<path d="M7.9423 6.04281C8.23172 5.736 8.57763 5.48792 8.96105 5.31219C9.35243 5.13239 9.77849 5.04065 10.2092 5.04344C10.7557 5.04344 11.2573 5.17375 11.7145 5.43437C12.1652 5.68925 12.5492 6.04712 12.8351 6.47875L13.9489 5.64594C13.5257 5.06826 12.976 4.59513 12.3417 4.26281C11.6973 3.92094 10.9861 3.75 10.2089 3.75C9.56855 3.75 8.96668 3.87375 8.40355 4.12187C7.85311 4.35992 7.35322 4.70093 6.93074 5.12656C6.50888 5.55474 6.17209 6.05908 5.93824 6.61281C5.6948 7.17969 5.57324 7.78875 5.57324 8.43781C5.57324 9.08625 5.6948 9.69469 5.93824 10.2631C6.17184 10.8166 6.50867 11.3206 6.93074 11.7481C7.35325 12.174 7.85312 12.5155 8.40355 12.7541C8.96699 13.0009 9.56887 13.125 10.2089 13.125C10.9861 13.125 11.697 12.9541 12.3417 12.6119C12.9763 12.2801 13.5262 11.8068 13.9489 11.2287L12.8351 10.3972C12.5487 10.8282 12.1648 11.1856 11.7145 11.4406C11.2573 11.7009 10.7557 11.8313 10.2092 11.8313C9.77847 11.8342 9.35238 11.7424 8.96105 11.5625C8.57757 11.3869 8.23164 11.1388 7.9423 10.8319C7.6523 10.5256 7.42168 10.1659 7.25074 9.75656C7.0798 9.34719 6.99449 8.90687 6.99449 8.43781C6.99449 7.96781 7.0798 7.52812 7.25074 7.11844C7.42168 6.70875 7.6523 6.35031 7.9423 6.04281Z" fill="white"/>
</svg>
