<svg width="18" height="18" viewBox="0 0 18 18" fill="none" xmlns="http://www.w3.org/2000/svg">
<path d="M0.667969 9.00145C0.668438 10.9859 1.37669 12.9051 2.66544 14.4141C3.95418 15.9231 5.7389 16.9229 7.6988 17.2339V11.4098H5.58464V9.00145H7.7013V7.16812C7.65456 6.73902 7.70288 6.3049 7.84282 5.89659C7.98276 5.48827 8.21089 5.11578 8.511 4.80556C8.81112 4.49534 9.17586 4.25501 9.57932 4.10163C9.98278 3.94826 10.4151 3.8856 10.8455 3.91812C11.4705 3.92812 12.0955 3.98395 12.7121 4.08478V6.13395H11.6588C11.4798 6.1105 11.2978 6.12758 11.1262 6.18393C10.9547 6.24028 10.798 6.33446 10.6678 6.45951C10.5375 6.58455 10.4371 6.73726 10.3738 6.90636C10.3105 7.07546 10.286 7.25662 10.3021 7.43645V9.00145H12.6113L12.2421 11.4106H10.3021V17.2339C11.8752 16.9854 13.344 16.2912 14.5348 15.2338C15.7255 14.1763 16.5884 12.7998 17.0211 11.2671C17.4538 9.73451 17.4383 8.10999 16.9765 6.5859C16.5146 5.0618 15.6257 3.70197 14.4149 2.6674C13.2042 1.63283 11.7224 0.96684 10.1449 0.748286C8.56747 0.529731 6.9604 0.767764 5.51401 1.4342C4.06762 2.10064 2.84248 3.16757 1.98364 4.50868C1.1248 5.84979 0.668222 7.40891 0.667969 9.00145Z" fill="white"/>
</svg>
