<svg width="24" height="22" viewBox="0 0 24 22" fill="none" xmlns="http://www.w3.org/2000/svg">
<path d="M20.4054 3.55156C18.1607 1.58281 15.1714 0.5 11.9946 0.5C5.4375 0.5 0.101786 5.16875 0.101786 10.9062C0.101786 12.7391 0.648214 14.5297 1.6875 16.1094L0 21.5L6.30536 20.0516C8.04107 20.8813 9.99643 21.3172 11.9893 21.3172H11.9946C18.5464 21.3172 24 16.6484 24 10.9109C24 8.13125 22.65 5.52031 20.4054 3.55156ZM11.9946 19.5641C10.2161 19.5641 8.475 19.1469 6.95893 18.3594L6.6 18.1719L2.86071 19.0297L3.85714 15.8375L3.62143 15.5094C2.63036 14.1313 2.11071 12.5422 2.11071 10.9062C2.11071 6.13906 6.54643 2.25781 12 2.25781C14.6411 2.25781 17.1214 3.15781 18.9857 4.79375C20.85 6.42969 21.9964 8.6 21.9911 10.9109C21.9911 15.6828 17.4429 19.5641 11.9946 19.5641ZM17.4161 13.0859C17.1214 12.9547 15.6589 12.3266 15.3857 12.2422C15.1125 12.1531 14.9143 12.1109 14.7161 12.3734C14.5179 12.6359 13.95 13.2172 13.7732 13.3953C13.6018 13.5688 13.425 13.5922 13.1304 13.4609C11.3839 12.6969 10.2375 12.0969 9.08571 10.3672C8.78036 9.90781 9.39107 9.94063 9.95893 8.94687C10.0554 8.77344 10.0071 8.62344 9.93214 8.49219C9.85714 8.36094 9.2625 7.08125 9.01607 6.56094C8.775 6.05469 8.52857 6.125 8.34643 6.11563C8.175 6.10625 7.97679 6.10625 7.77857 6.10625C7.58036 6.10625 7.25893 6.17188 6.98571 6.42969C6.7125 6.69219 5.94643 7.32031 5.94643 8.6C5.94643 9.87969 7.0125 11.1172 7.15714 11.2906C7.30714 11.4641 9.25179 14.0891 12.2357 15.2188C14.1214 15.9312 14.8607 15.9922 15.8036 15.8703C16.3768 15.7953 17.5607 15.2422 17.8071 14.6328C18.0536 14.0234 18.0536 13.5031 17.9786 13.3953C17.9089 13.2781 17.7107 13.2125 17.4161 13.0859Z" fill="white"/>
</svg>
